<svg xmlns="http://www.w3.org/2000/svg" width="25.566" height="28.382" viewBox="0 0 25.566 28.382">
  <g id="Group_329" data-name="Group 329" transform="translate(-5195.946 -3648.809)">
    <g id="Group_328" data-name="Group 328">
      <g id="Group_327" data-name="Group 327" transform="translate(4147.458 3609.309)">
        <g id="notification-bell-svgrepo-com" transform="translate(1049 40)">
          <g id="Group_103" data-name="Group 103" transform="translate(0)">
            <g id="Group_102" data-name="Group 102">
              <path id="Path_711" data-name="Path 711" d="M55.825,22.382c-2.91-1.314-3.021-6.955-3.023-7.1V11.5a8.807,8.807,0,0,0-5.388-8.107,3.406,3.406,0,0,0-6.812,0A8.807,8.807,0,0,0,35.214,11.5v3.784c0,.142-.113,5.783-3.023,7.1a.772.772,0,0,0,.318,1.476h7.377a4.34,4.34,0,0,0,1.146,2.233,4.074,4.074,0,0,0,5.951,0,4.339,4.339,0,0,0,1.146-2.233h7.377a.772.772,0,0,0,.318-1.476Zm-3.833-2.7a8.564,8.564,0,0,0,1.353,2.634H34.672a8.563,8.563,0,0,0,1.353-2.634ZM44.008,1.544A1.865,1.865,0,0,1,45.8,2.89a8.832,8.832,0,0,0-3.577,0A1.865,1.865,0,0,1,44.008,1.544ZM36.759,15.29V11.5a7.25,7.25,0,0,1,14.5,0v3.8a16.115,16.115,0,0,0,.327,2.84H36.432A16.126,16.126,0,0,0,36.759,15.29Zm7.25,10.548a2.708,2.708,0,0,1-2.537-1.98h5.074A2.708,2.708,0,0,1,44.008,25.838Z" transform="translate(-31.737)" fill="#707070" stroke="#707070" stroke-width="1"/>
              <path id="Path_712" data-name="Path 712" d="M38.15,71.611a13.826,13.826,0,0,0,1.912-8.945c-.541-5.555,2.741-8.945,7.106-9.126a7.488,7.488,0,0,1,7.43,9.126A13.065,13.065,0,0,0,54.881,67a18.394,18.394,0,0,0,.492,1.775,14.287,14.287,0,0,0,1.352,2.841" transform="translate(-35.126 -49.292)" fill="#fff" stroke="#707070" stroke-width="1"/>
            </g>
          </g>
        </g>
      </g>
    </g>
  </g>
</svg>
